<?xml version="1.0" encoding="UTF-8" standalone="no"?>
<svg
   inkscape:version="1.1 (1:1.1+202105261517+ce6663b3b7)"
   sodipodi:docname="tri-icon-rv-green.svg"
   id="svg8"
   version="1.1"
   viewBox="0 0 20 20"
   height="20"
   width="20"
   xmlns:inkscape="http://www.inkscape.org/namespaces/inkscape"
   xmlns:sodipodi="http://sodipodi.sourceforge.net/DTD/sodipodi-0.dtd"
   xmlns="http://www.w3.org/2000/svg"
   xmlns:svg="http://www.w3.org/2000/svg"
   xmlns:rdf="http://www.w3.org/1999/02/22-rdf-syntax-ns#"
   xmlns:cc="http://creativecommons.org/ns#"
   xmlns:dc="http://purl.org/dc/elements/1.1/">
  <defs
     id="defs2" />
  <sodipodi:namedview
     inkscape:window-maximized="0"
     inkscape:window-y="41"
     inkscape:window-x="1956"
     inkscape:window-height="2081"
     inkscape:window-width="1884"
     borderlayer="true"
     inkscape:pagecheckerboard="true"
     units="px"
     showgrid="false"
     inkscape:document-rotation="0"
     inkscape:current-layer="layer1"
     inkscape:document-units="px"
     inkscape:cy="-11.600971"
     inkscape:cx="13.495007"
     inkscape:zoom="31.678384"
     inkscape:pageshadow="2"
     inkscape:pageopacity="0.0"
     borderopacity="1.0"
     bordercolor="#666666"
     pagecolor="#ffffff"
     id="base" />
  <metadata
     id="metadata5">
    <rdf:RDF>
      <cc:Work
         rdf:about="">
        <dc:format>image/svg+xml</dc:format>
        <dc:type
           rdf:resource="http://purl.org/dc/dcmitype/StillImage" />
      </cc:Work>
    </rdf:RDF>
  </metadata>
  <g
     id="layer1"
     inkscape:groupmode="layer"
     inkscape:label="Ebene 1"
     transform="translate(-267.84372,-540.94897)">
    <rect
       style="fill:#00685c;fill-opacity:1;stroke:none;stroke-width:2;stroke-miterlimit:3.86369;stroke-dashoffset:2"
       id="rect4008"
       width="20"
       height="20"
       x="267.84372"
       y="540.94897" />
    <path
       id="path4016"
       style="color:#000000;fill:#ffffff;stroke-miterlimit:3.86369;stroke-dashoffset:2;-inkscape-stroke:none"
       d="m 284.84373,543.94894 v 2.43555 l 2,-0.82812 v -1.60743 z m -16,10e-6 v 9 c 0,1.78472 0.95438,3.43772 2.5,4.33008 1.54561,0.89236 3.45438,0.89236 5,0 0.59465,-0.34333 1.10106,-0.79934 1.5,-1.33203 0.39894,0.53269 0.90534,0.9887 1.5,1.33203 1.54561,0.89236 3.45438,0.89236 5,0 1.54562,-0.89236 2.5,-2.54536 2.5,-4.33008 v -5.22656 l -2,0.82812 v 4.39844 c 0,1.0734 -0.57041,2.06096 -1.5,2.59766 -0.92959,0.5367 -2.07041,0.5367 -3,0 -0.67061,-0.38718 -1.15364,-1.0091 -1.37109,-1.72852 1.8718,-0.43579 3.37768,-1.92996 3.77148,-3.87695 0.47048,-2.32615 -0.77032,-4.67732 -2.95703,-5.59961 -0.54668,-0.23057 -1.1162,-0.35611 -1.68359,-0.38477 -0.10639,-0.005 -0.21227,-0.007 -0.31836,-0.006 -1.59139,0.0213 -3.13185,0.80123 -4.07227,2.17969 -1.03178,1.51236 -1.12897,3.43389 -0.35937,5.01367 l 1.85156,-0.76758 c -0.52638,-0.96799 -0.48807,-2.16897 0.16015,-3.11914 0.80797,-1.18431 2.32355,-1.62941 3.64454,-1.07226 1.32098,0.55715 2.0596,1.95416 1.77539,3.35937 -0.215,1.06301 -0.96707,1.89289 -1.94141,2.23442 v -2.91016 l -2,0.83008 v 3.25 c 0,1.0734 -0.57041,2.06096 -1.5,2.59766 -0.92959,0.5367 -2.07041,0.5367 -3,0 -0.92959,-0.5367 -1.5,-1.52426 -1.5,-2.59766 v -9 z" />
  </g>
</svg>
