<?xml version="1.0" encoding="UTF-8" standalone="no"?>
<svg
   inkscape:version="1.1 (1:1.1+202105261517+ce6663b3b7)"
   sodipodi:docname="tri-logo-bg.svg"
   id="svg8"
   version="1.1"
   viewBox="0 0 20.000004 20"
   height="20"
   width="20.000004"
   xmlns:inkscape="http://www.inkscape.org/namespaces/inkscape"
   xmlns:sodipodi="http://sodipodi.sourceforge.net/DTD/sodipodi-0.dtd"
   xmlns="http://www.w3.org/2000/svg"
   xmlns:svg="http://www.w3.org/2000/svg"
   xmlns:rdf="http://www.w3.org/1999/02/22-rdf-syntax-ns#"
   xmlns:cc="http://creativecommons.org/ns#"
   xmlns:dc="http://purl.org/dc/elements/1.1/">
  <defs
     id="defs2" />
  <sodipodi:namedview
     inkscape:window-maximized="0"
     inkscape:window-y="41"
     inkscape:window-x="1956"
     inkscape:window-height="2081"
     inkscape:window-width="1884"
     borderlayer="true"
     inkscape:pagecheckerboard="true"
     units="px"
     showgrid="false"
     inkscape:document-rotation="0"
     inkscape:current-layer="layer1"
     inkscape:document-units="px"
     inkscape:cy="17.314646"
     inkscape:cx="14.063218"
     inkscape:zoom="31.678384"
     inkscape:pageshadow="2"
     inkscape:pageopacity="0.0"
     borderopacity="1.0"
     bordercolor="#666666"
     pagecolor="#ffffff"
     id="base" />
  <metadata
     id="metadata5">
    <rdf:RDF>
      <cc:Work
         rdf:about="">
        <dc:format>image/svg+xml</dc:format>
        <dc:type
           rdf:resource="http://purl.org/dc/dcmitype/StillImage" />
      </cc:Work>
    </rdf:RDF>
  </metadata>
  <g
     id="layer1"
     inkscape:groupmode="layer"
     inkscape:label="Ebene 1"
     transform="translate(-275.71429,-484.28571)">
    <rect
       style="fill:#ffffff;stroke:none;stroke-width:2;stroke-miterlimit:3.86369;stroke-dashoffset:2"
       id="rect3068"
       width="20"
       height="20"
       x="275.71429"
       y="484.28571" />
    <path
       id="path2175"
       style="color:#000000;fill:#4cb5ac;fill-opacity:1;stroke-miterlimit:3.86369;stroke-dashoffset:2;-inkscape-stroke:none"
       d="m 295.71429,488.48102 -20,8.2832 v 2.16407 l 20,-8.28321 z" />
    <path
       id="path837"
       style="color:#000000;fill:#2ec27e;stroke-miterlimit:3.86369;stroke-dashoffset:2;-inkscape-stroke:none"
       d="m 284.71447,495.20019 1.99995,-0.82823" />
    <path
       id="path833"
       style="color:#000000;fill:#2ec27e;stroke-miterlimit:3.86369;stroke-dashoffset:2;-inkscape-stroke:none"
       d="m 286.71456,492.20629 -2.00059,0.82863" />
    <path
       id="path1197"
       style="color:#000000;fill:#000000;stroke-miterlimit:3.86369;stroke-dashoffset:2;-inkscape-stroke:none"
       d="m 292.71429,487.28571 v 2.43554 l 2,-0.82812 v -1.60742 z m -16,0 v 9 c 0,1.78473 0.95438,3.43772 2.5,4.33008 1.54561,0.89236 3.45438,0.89236 5,0 0.59465,-0.34332 1.10106,-0.79934 1.5,-1.33203 0.39894,0.53269 0.90535,0.98871 1.5,1.33203 1.54561,0.89236 3.45438,0.89236 5,0 1.54562,-0.89236 2.5,-2.54535 2.5,-4.33008 v -5.22656 l -2,0.82813 v 4.39843 c 0,1.0734 -0.57041,2.06096 -1.5,2.59766 -0.92959,0.5367 -2.07041,0.5367 -3,0 -0.67061,-0.38718 -1.15364,-1.0091 -1.37109,-1.72852 1.8718,-0.43578 3.37768,-1.92995 3.77148,-3.87695 0.47048,-2.32615 -0.77032,-4.67732 -2.95703,-5.59961 -0.54668,-0.23057 -1.1162,-0.3561 -1.68359,-0.38476 -0.10639,-0.005 -0.21227,-0.007 -0.31836,-0.006 -1.59139,0.0213 -3.13185,0.80123 -4.07227,2.17968 -1.03178,1.51237 -1.12897,3.43389 -0.35937,5.01368 l 1.85156,-0.76758 c -0.52638,-0.968 -0.48808,-2.16898 0.16015,-3.11914 0.80797,-1.18431 2.32355,-1.62942 3.64454,-1.07227 1.32098,0.55715 2.0596,1.95416 1.77539,3.35938 -0.215,1.063 -0.96707,1.89289 -1.94141,2.23441 v -2.91015 l -2,0.83007 v 3.25 c 0,1.0734 -0.57041,2.06096 -1.5,2.59766 -0.92959,0.5367 -2.07041,0.5367 -3,0 -0.92959,-0.5367 -1.5,-1.52426 -1.5,-2.59766 v -9 z" />
  </g>
</svg>
