<?xml version="1.0" encoding="UTF-8" standalone="no"?>
<svg
   inkscape:version="1.1 (1:1.1+202105261517+ce6663b3b7)"
   sodipodi:docname="tri-icon.svg"
   id="svg8"
   version="1.1"
   viewBox="0 0 20 20"
   height="20"
   width="20"
   xmlns:inkscape="http://www.inkscape.org/namespaces/inkscape"
   xmlns:sodipodi="http://sodipodi.sourceforge.net/DTD/sodipodi-0.dtd"
   xmlns="http://www.w3.org/2000/svg"
   xmlns:svg="http://www.w3.org/2000/svg"
   xmlns:rdf="http://www.w3.org/1999/02/22-rdf-syntax-ns#"
   xmlns:cc="http://creativecommons.org/ns#"
   xmlns:dc="http://purl.org/dc/elements/1.1/">
  <defs
     id="defs2" />
  <sodipodi:namedview
     inkscape:window-maximized="0"
     inkscape:window-y="41"
     inkscape:window-x="1956"
     inkscape:window-height="2081"
     inkscape:window-width="1884"
     borderlayer="true"
     inkscape:pagecheckerboard="true"
     units="px"
     showgrid="false"
     inkscape:document-rotation="0"
     inkscape:current-layer="layer1"
     inkscape:document-units="px"
     inkscape:cy="1.9413869"
     inkscape:cx="19.208682"
     inkscape:zoom="31.678384"
     inkscape:pageshadow="2"
     inkscape:pageopacity="0.0"
     borderopacity="1.0"
     bordercolor="#666666"
     pagecolor="#ffffff"
     id="base" />
  <metadata
     id="metadata5">
    <rdf:RDF>
      <cc:Work
         rdf:about="">
        <dc:format>image/svg+xml</dc:format>
        <dc:type
           rdf:resource="http://purl.org/dc/dcmitype/StillImage" />
      </cc:Work>
    </rdf:RDF>
  </metadata>
  <g
     id="layer1"
     inkscape:groupmode="layer"
     inkscape:label="Ebene 1"
     transform="translate(-190,-1287.1428)">
    <path
       id="path4080"
       style="color:#000000;fill:#000000;stroke-miterlimit:3.86369;stroke-dashoffset:2;-inkscape-stroke:none"
       d="m 207,1290.1428 v 2.4355 l 2,-0.8281 v -1.6074 z m -16,0 v 9 c 0,1.7847 0.95438,3.4377 2.5,4.3301 1.54561,0.8923 3.45438,0.8923 5,0 0.59465,-0.3433 1.10106,-0.7994 1.5,-1.332 0.39894,0.5326 0.90534,0.9887 1.5,1.332 1.54561,0.8923 3.45438,0.8923 5,0 1.54562,-0.8924 2.5,-2.5454 2.5,-4.3301 v -5.2266 l -2,0.8282 v 4.3984 c 0,1.0734 -0.57041,2.061 -1.5,2.5977 -0.92959,0.5367 -2.07041,0.5367 -3,0 -0.67061,-0.3872 -1.15364,-1.0091 -1.37109,-1.7286 1.8718,-0.4357 3.37768,-1.9299 3.77148,-3.8769 0.47048,-2.3262 -0.77032,-4.6773 -2.95703,-5.5996 -0.54668,-0.2306 -1.1162,-0.3561 -1.68359,-0.3848 -0.10639,-0.01 -0.21227,-0.01 -0.31836,-0.01 -1.59139,0.021 -3.13185,0.8013 -4.07227,2.1797 -1.03178,1.5124 -1.12897,3.4339 -0.35937,5.0137 l 1.85156,-0.7676 c -0.52638,-0.968 -0.48808,-2.169 0.16015,-3.1191 0.80797,-1.1844 2.32355,-1.6295 3.64454,-1.0723 1.32098,0.5571 2.0596,1.9542 1.77539,3.3594 -0.215,1.063 -0.96707,1.8929 -1.94141,2.2344 v -2.9102 l -2,0.8301 v 3.25 c 0,1.0734 -0.57041,2.061 -1.5,2.5977 -0.92959,0.5367 -2.07041,0.5367 -3,0 -0.92959,-0.5367 -1.5,-1.5243 -1.5,-2.5977 v -9 z" />
  </g>
</svg>
