<?xml version="1.0" encoding="UTF-8" standalone="no"?>
<svg
  viewBox="0 0 20 20"
  version="1.1"
  xmlns="http://www.w3.org/2000/svg">
  <path
    style="fill:#00685c;"
    d="m 17.00001,2.99998 v 2.43554 l 2,-0.82812 V 2.99998 Z m -16,0 v 9 c 0,1.78473 0.95438,3.43772 2.5,4.33008 1.54561,0.89236 3.45438,0.89236 5,0 0.59466,-0.34332 1.10106,-0.79934 1.5,-1.33203 0.39894,0.53269 0.90534,0.98871 1.5,1.33203 1.54561,0.89236 3.45438,0.89236 5,0 1.54562,-0.89236 2.5,-2.54535 2.5,-4.33008 V 6.77342 l -2,0.82812 v 4.39844 c 0,1.0734 -0.57041,2.06096 -1.5,2.59766 -0.92959,0.5367 -2.07041,0.5367 -3,0 -0.67061,-0.38718 -1.15364,-1.0091 -1.37109,-1.72852 1.8718,-0.43579 3.37768,-1.92995 3.77148,-3.87695 C 15.37088,6.66602 14.13008,4.31485 11.94337,3.39256 11.39669,3.16199 10.82717,3.03645 10.25978,3.00779 10.15339,3.00279 10.04751,3.00079 9.94142,3.00179 8.35003,3.02309 6.80957,3.80303 5.86915,5.18148 4.83737,6.69385 4.74018,8.61537 5.50978,10.19515 L 7.36134,9.42757 C 6.83496,8.45958 6.87326,7.2586 7.52149,6.30843 8.32946,5.12412 9.84505,4.67902 11.16603,5.23617 c 1.32098,0.55715 2.0596,1.95416 1.77539,3.35937 -0.215,1.06301 -0.96707,1.89289 -1.94141,2.23442 V 7.9198 l -2,0.83008 v 3.25 c 0,1.0734 -0.57041,2.06096 -1.5,2.59766 -0.92959,0.5367 -2.07041,0.5367 -3,0 -0.92959,-0.5367 -1.5,-1.52426 -1.5,-2.59766 v -9 z" />
</svg>
